<svg width="86" height="16" viewBox="0 0 86 16" fill="none" xmlns="http://www.w3.org/2000/svg">
<path d="M12.3878 0.454545V15H10.044L3.19034 5.09233H3.0696V15H0.434659V0.454545H2.79261L9.6392 10.3693H9.76705V0.454545H12.3878ZM19.4038 15.2131C18.3384 15.2131 17.4151 14.9787 16.6339 14.5099C15.8526 14.0412 15.2466 13.3854 14.8157 12.5426C14.3896 11.6998 14.1765 10.715 14.1765 9.58807C14.1765 8.46117 14.3896 7.47396 14.8157 6.62642C15.2466 5.77888 15.8526 5.12074 16.6339 4.65199C17.4151 4.18324 18.3384 3.94886 19.4038 3.94886C20.4691 3.94886 21.3924 4.18324 22.1737 4.65199C22.9549 5.12074 23.5586 5.77888 23.9847 6.62642C24.4156 7.47396 24.631 8.46117 24.631 9.58807C24.631 10.715 24.4156 11.6998 23.9847 12.5426C23.5586 13.3854 22.9549 14.0412 22.1737 14.5099C21.3924 14.9787 20.4691 15.2131 19.4038 15.2131ZM19.418 13.1534C19.9956 13.1534 20.4786 12.9948 20.8668 12.6776C21.2551 12.3556 21.5439 11.9247 21.7333 11.3849C21.9274 10.8452 22.0245 10.2438 22.0245 9.58097C22.0245 8.91335 21.9274 8.30966 21.7333 7.76989C21.5439 7.22538 21.2551 6.79214 20.8668 6.47017C20.4786 6.1482 19.9956 5.98722 19.418 5.98722C18.8261 5.98722 18.3337 6.1482 17.9407 6.47017C17.5524 6.79214 17.2612 7.22538 17.0671 7.76989C16.8777 8.30966 16.783 8.91335 16.783 9.58097C16.783 10.2438 16.8777 10.8452 17.0671 11.3849C17.2612 11.9247 17.5524 12.3556 17.9407 12.6776C18.3337 12.9948 18.8261 13.1534 19.418 13.1534ZM26.3132 15V4.09091H28.7706V5.9446H28.8984C29.1257 5.3196 29.5021 4.83191 30.0277 4.48153C30.5533 4.12642 31.1806 3.94886 31.9098 3.94886C32.6484 3.94886 33.2711 4.12879 33.7777 4.48864C34.2891 4.84375 34.6489 5.32907 34.8572 5.9446H34.9709C35.2124 5.33854 35.6196 4.85559 36.1925 4.49574C36.7701 4.13116 37.4543 3.94886 38.245 3.94886C39.2488 3.94886 40.0679 4.2661 40.7024 4.90057C41.3369 5.53504 41.6541 6.4607 41.6541 7.67756V15H39.076V8.07528C39.076 7.3982 38.8961 6.90341 38.5362 6.59091C38.1764 6.27367 37.736 6.11506 37.2152 6.11506C36.5949 6.11506 36.1096 6.30919 35.7592 6.69744C35.4136 7.08097 35.2408 7.58049 35.2408 8.19602V15H32.7195V7.96875C32.7195 7.4053 32.549 6.95549 32.2081 6.61932C31.8719 6.28314 31.4316 6.11506 30.8871 6.11506C30.5178 6.11506 30.1816 6.20975 29.8786 6.39915C29.5755 6.58381 29.334 6.84659 29.1541 7.1875C28.9742 7.52367 28.8842 7.91667 28.8842 8.36648V15H26.3132Z" fill="#FAFAFA"/>
<path d="M55.8292 0.454545V15H53.4854L46.6317 5.09233H46.511V15H43.8761V0.454545H46.234L53.0806 10.3693H53.2085V0.454545H55.8292ZM62.8452 15.2131C61.7798 15.2131 60.8565 14.9787 60.0753 14.5099C59.294 14.0412 58.688 13.3854 58.2571 12.5426C57.831 11.6998 57.6179 10.715 57.6179 9.58807C57.6179 8.46117 57.831 7.47396 58.2571 6.62642C58.688 5.77888 59.294 5.12074 60.0753 4.65199C60.8565 4.18324 61.7798 3.94886 62.8452 3.94886C63.9105 3.94886 64.8338 4.18324 65.6151 4.65199C66.3963 5.12074 67 5.77888 67.4261 6.62642C67.857 7.47396 68.0724 8.46117 68.0724 9.58807C68.0724 10.715 67.857 11.6998 67.4261 12.5426C67 13.3854 66.3963 14.0412 65.6151 14.5099C64.8338 14.9787 63.9105 15.2131 62.8452 15.2131ZM62.8594 13.1534C63.437 13.1534 63.92 12.9948 64.3082 12.6776C64.6965 12.3556 64.9853 11.9247 65.1747 11.3849C65.3688 10.8452 65.4659 10.2438 65.4659 9.58097C65.4659 8.91335 65.3688 8.30966 65.1747 7.76989C64.9853 7.22538 64.6965 6.79214 64.3082 6.47017C63.92 6.1482 63.437 5.98722 62.8594 5.98722C62.2675 5.98722 61.7751 6.1482 61.3821 6.47017C60.9938 6.79214 60.7027 7.22538 60.5085 7.76989C60.3191 8.30966 60.2244 8.91335 60.2244 9.58097C60.2244 10.2438 60.3191 10.8452 60.5085 11.3849C60.7027 11.9247 60.9938 12.3556 61.3821 12.6776C61.7751 12.9948 62.2675 13.1534 62.8594 13.1534ZM69.7546 15V4.09091H72.212V5.9446H72.3398C72.5671 5.3196 72.9435 4.83191 73.4691 4.48153C73.9947 4.12642 74.622 3.94886 75.3512 3.94886C76.0898 3.94886 76.7125 4.12879 77.2191 4.48864C77.7305 4.84375 78.0903 5.32907 78.2987 5.9446H78.4123C78.6538 5.33854 79.061 4.85559 79.6339 4.49574C80.2115 4.13116 80.8957 3.94886 81.6864 3.94886C82.6902 3.94886 83.5094 4.2661 84.1438 4.90057C84.7783 5.53504 85.0955 6.4607 85.0955 7.67756V15H82.5174V8.07528C82.5174 7.3982 82.3375 6.90341 81.9776 6.59091C81.6178 6.27367 81.1774 6.11506 80.6566 6.11506C80.0363 6.11506 79.551 6.30919 79.2006 6.69744C78.855 7.08097 78.6822 7.58049 78.6822 8.19602V15H76.1609V7.96875C76.1609 7.4053 75.9904 6.95549 75.6495 6.61932C75.3133 6.28314 74.873 6.11506 74.3285 6.11506C73.9592 6.11506 73.623 6.20975 73.32 6.39915C73.0169 6.58381 72.7754 6.84659 72.5955 7.1875C72.4156 7.52367 72.3256 7.91667 72.3256 8.36648V15H69.7546Z" fill="#EF4444"/>
</svg>
