<svg width="77" height="13" viewBox="0 0 77 13" fill="none" xmlns="http://www.w3.org/2000/svg">
<path d="M5.22212 3.45455C5.17099 3.02273 4.9636 2.6875 4.59996 2.44886C4.23633 2.21023 3.79031 2.09091 3.2619 2.09091C2.87553 2.09091 2.53746 2.15341 2.24769 2.27841C1.96076 2.40341 1.73633 2.57528 1.5744 2.79403C1.41531 3.01278 1.33576 3.26136 1.33576 3.53977C1.33576 3.77273 1.39116 3.97301 1.50195 4.14062C1.61559 4.3054 1.76048 4.44318 1.93661 4.55398C2.11275 4.66193 2.29741 4.75142 2.49059 4.82244C2.68377 4.89062 2.86133 4.94602 3.02326 4.98864L3.90962 5.22727C4.1369 5.28693 4.38974 5.36932 4.66815 5.47443C4.9494 5.57955 5.21786 5.72301 5.47354 5.90483C5.73207 6.08381 5.94514 6.31392 6.11275 6.59517C6.28036 6.87642 6.36417 7.22159 6.36417 7.63068C6.36417 8.10227 6.24059 8.52841 5.99343 8.90909C5.74911 9.28977 5.39116 9.59233 4.91957 9.81676C4.45082 10.0412 3.88121 10.1534 3.21076 10.1534C2.58576 10.1534 2.04457 10.0526 1.58718 9.85085C1.13263 9.64915 0.77468 9.3679 0.513317 9.0071C0.254794 8.64631 0.108487 8.22727 0.0743963 7.75H1.16531C1.19371 8.07955 1.30451 8.35227 1.49769 8.56818C1.69371 8.78125 1.94087 8.94034 2.23917 9.04545C2.54031 9.14773 2.86417 9.19886 3.21076 9.19886C3.61417 9.19886 3.97639 9.13352 4.29741 9.00284C4.61843 8.86932 4.87269 8.68466 5.06019 8.44886C5.24769 8.21023 5.34144 7.93182 5.34144 7.61364C5.34144 7.32386 5.26048 7.08807 5.09854 6.90625C4.93661 6.72443 4.72354 6.5767 4.45934 6.46307C4.19514 6.34943 3.90962 6.25 3.60281 6.16477L2.52894 5.85795C1.84712 5.66193 1.30735 5.3821 0.909624 5.01847C0.511896 4.65483 0.313033 4.17898 0.313033 3.59091C0.313033 3.10227 0.445135 2.67614 0.70934 2.3125C0.976385 1.94602 1.33434 1.66193 1.7832 1.46023C2.23491 1.25568 2.73917 1.15341 3.29599 1.15341C3.85849 1.15341 4.35849 1.25426 4.79599 1.45597C5.23349 1.65483 5.58008 1.92756 5.83576 2.27415C6.09428 2.62074 6.23065 3.0142 6.24485 3.45455H5.22212ZM9.44833 10L7.45401 3.45455H8.51083L9.9256 8.46591H9.99379L11.3915 3.45455H12.4654L13.8461 8.44886H13.9142L15.329 3.45455H16.3858L14.3915 10H13.4029L11.9711 4.97159H11.8688L10.437 10H9.44833ZM17.7154 10V3.45455H18.7211V10H17.7154ZM18.2267 2.36364C18.0307 2.36364 17.8617 2.29688 17.7196 2.16335C17.5804 2.02983 17.5108 1.86932 17.5108 1.68182C17.5108 1.49432 17.5804 1.33381 17.7196 1.20028C17.8617 1.06676 18.0307 1 18.2267 1C18.4228 1 18.5904 1.06676 18.7296 1.20028C18.8716 1.33381 18.9426 1.49432 18.9426 1.68182C18.9426 1.86932 18.8716 2.02983 18.7296 2.16335C18.5904 2.29688 18.4228 2.36364 18.2267 2.36364ZM23.4778 3.45455V4.30682H19.9494V3.45455H23.4778ZM21.0062 10V2.55114C21.0062 2.17614 21.0943 1.86364 21.2704 1.61364C21.4466 1.36364 21.6752 1.17614 21.9565 1.05114C22.2377 0.926136 22.5346 0.863636 22.8471 0.863636C23.0943 0.863636 23.296 0.883522 23.4522 0.923295C23.6085 0.963068 23.725 1 23.8017 1.03409L23.5119 1.90341C23.4608 1.88636 23.3897 1.86506 23.2988 1.83949C23.2108 1.81392 23.0943 1.80114 22.9494 1.80114C22.617 1.80114 22.377 1.88494 22.2292 2.05256C22.0843 2.22017 22.0119 2.46591 22.0119 2.78977V10H21.0062ZM27.7338 3.45455V4.30682H24.3418V3.45455H27.7338ZM25.3304 1.88636H26.3361V8.125C26.3361 8.40909 26.3773 8.62216 26.4597 8.7642C26.5449 8.90341 26.6529 8.99716 26.7836 9.04545C26.9171 9.09091 27.0577 9.11364 27.2054 9.11364C27.3162 9.11364 27.4071 9.10795 27.4782 9.09659C27.5492 9.08239 27.606 9.07102 27.6486 9.0625L27.8532 9.96591C27.785 9.99148 27.6898 10.017 27.5676 10.0426C27.4455 10.071 27.2907 10.0852 27.1032 10.0852C26.8191 10.0852 26.5407 10.0241 26.2679 9.90199C25.998 9.77983 25.7736 9.59375 25.5946 9.34375C25.4185 9.09375 25.3304 8.77841 25.3304 8.39773V1.88636ZM35.0932 10.1364C34.5478 10.1364 34.0662 9.99858 33.6486 9.72301C33.231 9.4446 32.9043 9.05256 32.6685 8.54688C32.4327 8.03835 32.3148 7.4375 32.3148 6.74432C32.3148 6.05682 32.4327 5.46023 32.6685 4.95455C32.9043 4.44886 33.2324 4.05824 33.6529 3.78267C34.0733 3.5071 34.5591 3.36932 35.1103 3.36932C35.5364 3.36932 35.873 3.44034 36.1202 3.58239C36.3702 3.72159 36.5605 3.88068 36.6912 4.05966C36.8248 4.2358 36.9284 4.38068 37.0023 4.49432H37.0875V1.27273H38.0932V10H37.1216V8.99432H37.0023C36.9284 9.11364 36.8233 9.2642 36.687 9.44602C36.5506 9.625 36.356 9.78551 36.1032 9.92756C35.8503 10.0668 35.5137 10.1364 35.0932 10.1364ZM35.2296 9.23295C35.633 9.23295 35.9739 9.12784 36.2523 8.91761C36.5307 8.70455 36.7424 8.41051 36.8873 8.03551C37.0321 7.65767 37.1046 7.22159 37.1046 6.72727C37.1046 6.23864 37.0336 5.81108 36.8915 5.4446C36.7495 5.07528 36.5392 4.78835 36.2608 4.58381C35.9824 4.37642 35.6387 4.27273 35.2296 4.27273C34.8034 4.27273 34.4483 4.3821 34.1642 4.60085C33.883 4.81676 33.6713 5.1108 33.5293 5.48295C33.3901 5.85227 33.3205 6.26705 33.3205 6.72727C33.3205 7.19318 33.3915 7.61648 33.5336 7.99716C33.6784 8.375 33.8915 8.67614 34.1728 8.90057C34.4569 9.12216 34.8091 9.23295 35.2296 9.23295ZM42.8191 10.1364C42.1884 10.1364 41.6444 9.99716 41.187 9.71875C40.7324 9.4375 40.3816 9.04545 40.1344 8.54261C39.8901 8.03693 39.7679 7.44886 39.7679 6.77841C39.7679 6.10795 39.8901 5.51705 40.1344 5.00568C40.3816 4.49148 40.7253 4.09091 41.1657 3.80398C41.6088 3.5142 42.1259 3.36932 42.7168 3.36932C43.0577 3.36932 43.3944 3.42614 43.7267 3.53977C44.0591 3.65341 44.3617 3.83807 44.6344 4.09375C44.9071 4.34659 45.1245 4.68182 45.2864 5.09943C45.4483 5.51705 45.5293 6.03125 45.5293 6.64205V7.06818H40.4838V6.19886H44.5066C44.5066 5.82955 44.4327 5.5 44.285 5.21023C44.1401 4.92045 43.9327 4.69176 43.6628 4.52415C43.3958 4.35653 43.0804 4.27273 42.7168 4.27273C42.3162 4.27273 41.9696 4.37216 41.677 4.57102C41.3873 4.76705 41.1642 5.02273 41.008 5.33807C40.8517 5.65341 40.7736 5.99148 40.7736 6.35227V6.93182C40.7736 7.42614 40.8588 7.84517 41.0293 8.18892C41.2026 8.52983 41.4426 8.78977 41.7495 8.96875C42.0563 9.14489 42.4128 9.23295 42.8191 9.23295C43.0833 9.23295 43.3219 9.19602 43.535 9.12216C43.7509 9.04545 43.937 8.93182 44.0932 8.78125C44.2495 8.62784 44.3702 8.4375 44.4554 8.21023L45.427 8.48295C45.3248 8.8125 45.1529 9.10227 44.9114 9.35227C44.6699 9.59943 44.3716 9.79261 44.0165 9.93182C43.6614 10.0682 43.2623 10.1364 42.8191 10.1364ZM48.0648 1.27273V10H47.0591V1.27273H48.0648ZM49.9068 10V3.45455H50.9125V10H49.9068ZM50.4181 2.36364C50.2221 2.36364 50.0531 2.29688 49.911 2.16335C49.7718 2.02983 49.7022 1.86932 49.7022 1.68182C49.7022 1.49432 49.7718 1.33381 49.911 1.20028C50.0531 1.06676 50.2221 1 50.4181 1C50.6142 1 50.7818 1.06676 50.921 1.20028C51.063 1.33381 51.1341 1.49432 51.1341 1.68182C51.1341 1.86932 51.063 2.02983 50.921 2.16335C50.7818 2.29688 50.6142 2.36364 50.4181 2.36364ZM58.1067 3.45455L55.6863 10H54.6635L52.2431 3.45455H53.334L55.1408 8.67045H55.209L57.0158 3.45455H58.1067ZM61.9441 10.1364C61.3134 10.1364 60.7694 9.99716 60.312 9.71875C59.8574 9.4375 59.5066 9.04545 59.2594 8.54261C59.0151 8.03693 58.8929 7.44886 58.8929 6.77841C58.8929 6.10795 59.0151 5.51705 59.2594 5.00568C59.5066 4.49148 59.8503 4.09091 60.2907 3.80398C60.7338 3.5142 61.2509 3.36932 61.8418 3.36932C62.1827 3.36932 62.5194 3.42614 62.8517 3.53977C63.1841 3.65341 63.4867 3.83807 63.7594 4.09375C64.0321 4.34659 64.2495 4.68182 64.4114 5.09943C64.5733 5.51705 64.6543 6.03125 64.6543 6.64205V7.06818H59.6088V6.19886H63.6316C63.6316 5.82955 63.5577 5.5 63.41 5.21023C63.2651 4.92045 63.0577 4.69176 62.7878 4.52415C62.5208 4.35653 62.2054 4.27273 61.8418 4.27273C61.4412 4.27273 61.0946 4.37216 60.802 4.57102C60.5123 4.76705 60.2892 5.02273 60.133 5.33807C59.9767 5.65341 59.8986 5.99148 59.8986 6.35227V6.93182C59.8986 7.42614 59.9838 7.84517 60.1543 8.18892C60.3276 8.52983 60.5676 8.78977 60.8745 8.96875C61.1813 9.14489 61.5378 9.23295 61.9441 9.23295C62.2083 9.23295 62.4469 9.19602 62.66 9.12216C62.8759 9.04545 63.062 8.93182 63.2182 8.78125C63.3745 8.62784 63.4952 8.4375 63.5804 8.21023L64.552 8.48295C64.4498 8.8125 64.2779 9.10227 64.0364 9.35227C63.7949 9.59943 63.4966 9.79261 63.1415 9.93182C62.7864 10.0682 62.3873 10.1364 61.9441 10.1364ZM66.1841 10V3.45455H67.1557V4.44318H67.2239C67.3432 4.11932 67.5591 3.85653 67.8716 3.65483C68.1841 3.45312 68.5364 3.35227 68.9284 3.35227C69.0023 3.35227 69.0946 3.35369 69.2054 3.35653C69.3162 3.35937 69.4 3.36364 69.4569 3.36932V4.39205C69.4228 4.38352 69.3446 4.37074 69.2225 4.35369C69.1032 4.33381 68.9767 4.32386 68.8432 4.32386C68.525 4.32386 68.2409 4.39062 67.9909 4.52415C67.7438 4.65483 67.5478 4.83665 67.4029 5.0696C67.2608 5.29972 67.1898 5.5625 67.1898 5.85795V10H66.1841ZM71.4959 12.4545C71.3255 12.4545 71.1735 12.4403 71.04 12.4119C70.9064 12.3864 70.8141 12.3608 70.763 12.3352L71.0186 11.4489C71.263 11.5114 71.4789 11.5341 71.6664 11.517C71.8539 11.5 72.0201 11.4162 72.165 11.2656C72.3127 11.1179 72.4476 10.8778 72.5698 10.5455L72.7573 10.0341L70.3368 3.45455H71.4277L73.2346 8.67045H73.3027L75.1096 3.45455H76.2005L73.4221 10.9545C73.2971 11.2926 73.1422 11.5724 72.9576 11.794C72.7729 12.0185 72.5584 12.1847 72.3141 12.2926C72.0726 12.4006 71.7999 12.4545 71.4959 12.4545Z" fill="#F4F4F5"/>
</svg>
